# xmcd
#
# Track frame offsets:
#  150
#  13990
#  26555
#  47397
#  61802
#  78042
#  94127
#  108817
#  122782
#  136167
#
# Disc length: 2063 seconds
#
# Revision: 6
# Processed by: cddbd v1.5.1PL2 Copyright (c) Steve Scherf et al.
# Submitted via: Collectorz.com Music Collector 6.9
#
DISCID=71080d0a
DTITLE=The Highwaymen - Highwayman Super Hits
DYEAR=1999
DGENRE=Country
TTITLE0=Highwayman
TTITLE1=Big River
TTITLE2=Desperados Waiting For A Train
TTITLE3=The Last Cowboy Song
TTITLE4=The Twentieth Century Is Almost Over
TTITLE5=Angels Love Bad Men
TTITLE6=Silver Stallion
TTITLE7=We're All In Your Corner
TTITLE8=Songs That Make A Difference
TTITLE9=American Remains
EXTD=
EXTT0=
EXTT1=
EXTT2=
EXTT3=
EXTT4=
EXTT5=
EXTT6=
EXTT7=
EXTT8=
EXTT9=
PLAYORDER=
